<?xml version="1.0" standalone="no"?>
<!DOCTYPE svg PUBLIC "-//W3C//DTD SVG 20010904//EN"
 "http://www.w3.org/TR/2001/REC-SVG-20010904/DTD/svg10.dtd">
<svg version="1.0" xmlns="http://www.w3.org/2000/svg"
 width="1280.000000pt" height="1024.000000pt" viewBox="0 0 1280.000000 1024.000000"
 preserveAspectRatio="xMidYMid meet">

<g transform="translate(0.000000,1024.000000) scale(0.100000,-0.100000)"
fill="#000000" stroke="none">
<path d="M7077 9915 c-37 -14 -167 -110 -167 -123 0 -4 -31 -39 -68 -79 -94
-100 -122 -111 -319 -123 -86 -6 -175 -15 -196 -21 -69 -18 -154 -77 -219
-151 -171 -195 -203 -218 -303 -218 -61 0 -105 18 -129 52 -23 32 -20 60 13
141 46 113 47 117 16 117 -37 0 -141 -50 -212 -103 -75 -56 -136 -130 -177
-217 -29 -62 -31 -71 -31 -190 0 -107 3 -135 24 -192 l24 -66 -36 -74 c-44
-89 -57 -141 -57 -233 0 -97 13 -144 70 -262 55 -112 57 -124 35 -167 -28 -53
-76 -198 -101 -306 -38 -159 -54 -306 -54 -494 0 -352 63 -642 195 -908 68
-136 120 -212 206 -303 38 -40 69 -77 69 -83 0 -16 -20 -20 -219 -42 -617 -67
-1018 -83 -1266 -50 -292 39 -713 146 -878 223 -86 39 -89 42 -119 100 -39 79
-109 146 -243 237 -222 150 -306 268 -306 424 0 56 8 97 41 196 58 177 72 244
72 335 1 137 -30 202 -116 248 -35 19 -56 22 -146 21 -173 -2 -306 -56 -404
-165 -113 -126 -166 -290 -166 -515 0 -142 16 -222 75 -368 38 -93 40 -127 7
-145 -10 -5 -81 -15 -157 -21 -162 -13 -260 -31 -320 -60 -60 -29 -134 -106
-164 -170 -22 -47 -26 -69 -26 -150 0 -83 4 -103 28 -155 15 -33 46 -83 68
-113 l41 -53 -47 -93 c-39 -77 -48 -105 -52 -162 -9 -114 27 -175 165 -284
l32 -25 -31 -63 c-25 -52 -30 -74 -30 -135 0 -64 4 -81 41 -153 49 -96 125
-177 228 -241 150 -94 302 -137 537 -152 83 -6 193 -19 247 -30 446 -92 1129
-88 1638 10 168 33 408 94 644 165 82 24 151 42 154 39 3 -2 6 -145 8 -317 5
-523 35 -933 99 -1347 51 -333 111 -786 155 -1181 6 -52 15 -126 20 -165 5
-38 14 -122 20 -185 51 -564 46 -531 78 -557 15 -13 51 -35 79 -50 45 -24 56
-26 73 -15 24 15 19 16 240 -91 214 -103 403 -160 680 -206 200 -33 598 -65
720 -59 511 28 1068 121 1466 244 82 25 187 51 234 58 87 12 110 20 110 36 0
5 -36 93 -80 196 -44 102 -80 195 -80 205 0 23 0 23 397 8 160 -6 303 -9 317
-5 31 8 95 94 141 191 42 89 105 250 105 269 0 32 -73 214 -115 288 -25 42
-45 80 -45 83 0 3 31 42 70 86 200 232 508 815 705 1334 105 276 141 444 115
535 -8 28 -162 265 -263 405 -238 329 -619 753 -837 931 -19 16 -37 31 -40 35
-40 47 -392 288 -593 406 -211 124 -583 298 -822 384 -47 17 -85 36 -85 42 0
10 42 63 219 276 33 40 41 44 100 52 176 24 330 170 386 362 12 41 16 85 13
146 -3 76 -8 96 -39 160 l-36 73 52 106 c63 127 113 259 161 425 79 272 98
587 48 791 -58 237 -292 577 -462 670 -78 43 -110 80 -190 222 -58 102 -119
177 -164 200 -46 24 -114 43 -210 58 -160 27 -163 29 -294 139 -96 81 -176
119 -261 123 -44 3 -82 -1 -106 -11z m178 -135 c24 -12 80 -49 122 -81 115
-89 184 -124 317 -159 210 -55 275 -103 404 -298 44 -66 94 -129 120 -150 105
-85 159 -142 217 -232 168 -260 219 -470 185 -758 -14 -116 -65 -332 -100
-426 l-23 -59 -26 79 c-57 166 -142 282 -315 431 l-60 51 96 93 c120 117 142
159 136 248 -9 124 -86 243 -188 289 -46 21 -69 25 -145 25 -92 -1 -106 -4
-295 -72 -47 -17 -98 -31 -113 -31 -37 0 -99 58 -184 170 -96 127 -223 220
-300 220 -42 0 -50 -4 -223 -101 -63 -36 -141 -76 -173 -89 l-58 -24 -112 57
c-97 50 -119 57 -167 57 -59 0 -119 -23 -174 -65 -19 -15 -100 -98 -180 -185
-125 -135 -156 -164 -210 -190 -74 -37 -170 -44 -223 -17 -37 20 -96 84 -122
135 -94 183 -87 395 16 545 14 20 29 37 32 37 3 0 14 -22 24 -49 49 -140 245
-203 395 -127 32 16 102 74 180 149 255 245 293 262 480 203 63 -20 126 -36
141 -36 41 0 89 37 149 115 149 195 184 235 219 255 46 24 93 21 158 -10z
m-752 -911 c108 -51 108 -51 190 -47 65 4 105 14 192 48 98 37 117 41 176 38
100 -5 197 -58 305 -165 47 -46 96 -88 110 -93 44 -17 115 -11 239 20 86 21
144 30 206 30 77 0 89 -3 131 -29 58 -37 98 -102 105 -174 8 -83 -34 -147
-153 -232 -90 -64 -88 -75 30 -163 238 -179 358 -344 373 -512 l4 -55 -55 103
c-98 184 -227 339 -346 418 -39 26 -41 26 -60 9 -11 -10 -20 -25 -20 -34 0 -9
61 -76 135 -150 146 -144 216 -238 285 -383 58 -121 48 -147 -14 -35 -99 180
-209 304 -324 361 -57 29 -72 27 -72 -7 0 -32 28 -68 96 -124 33 -28 80 -72
104 -99 46 -52 153 -211 188 -280 l21 -41 -40 -22 c-21 -12 -39 -28 -39 -35 0
-7 15 -33 33 -57 88 -115 92 -126 92 -229 0 -84 -3 -102 -28 -152 -38 -77
-129 -160 -201 -182 -29 -9 -85 -20 -124 -25 -39 -4 -73 -9 -75 -12 -2 -2 -35
-49 -74 -104 -137 -194 -311 -372 -475 -486 -171 -119 -184 -139 -89 -139 64
0 167 28 219 60 17 11 32 15 32 10 0 -30 -75 -153 -122 -201 -116 -117 -323
-221 -517 -260 -68 -13 -246 -8 -275 8 -14 8 0 13 67 26 96 17 207 62 207 83
0 11 -28 14 -139 14 -164 0 -267 17 -401 67 -582 217 -952 701 -1045 1367 -25
184 -16 498 20 651 55 233 147 463 266 661 65 107 85 127 153 153 135 50 163
73 313 248 58 68 128 142 155 164 70 55 102 53 241 -12z m-1022 -328 c24 -17
59 -43 78 -58 l34 -29 -46 -71 c-25 -40 -60 -100 -78 -134 -29 -58 -32 -62
-45 -44 -45 61 -73 203 -55 271 11 41 45 94 60 94 4 0 27 -13 52 -29z m-2942
-1074 c19 -7 43 -24 54 -39 35 -47 32 -106 -18 -353 -41 -197 -46 -241 -42
-305 13 -171 70 -260 262 -412 130 -103 207 -200 289 -364 102 -206 104 -388
4 -573 -17 -31 -48 -88 -69 -127 -22 -39 -39 -74 -39 -77 0 -10 34 -8 45 2 6
5 21 12 34 16 23 7 23 7 16 -56 -32 -296 -172 -522 -378 -613 -117 -52 -304
-75 -472 -57 -111 12 -239 43 -250 61 -10 15 63 23 159 16 110 -7 338 9 420
30 126 33 210 93 246 176 28 66 23 127 -19 205 l-31 56 44 66 c71 108 82 171
46 256 -20 47 -63 113 -97 150 -49 54 -49 52 -3 97 58 58 80 108 80 188 0 130
-51 252 -136 328 -30 27 -98 72 -152 100 -91 47 -279 131 -330 147 -16 5 -38
37 -78 116 -100 200 -126 297 -126 469 0 96 4 128 26 195 52 165 146 258 299
300 64 17 170 18 216 2z m-391 -1207 c88 -15 140 -33 269 -95 136 -66 223
-141 247 -212 35 -103 11 -228 -52 -265 -35 -21 -56 -16 -219 48 -206 81 -340
89 -673 38 l-165 -26 -19 24 c-10 13 -32 52 -49 87 -42 90 -44 185 -5 253 32
54 88 103 135 119 99 32 405 49 531 29z m5754 -275 c55 -20 182 -76 194 -87
13 -10 -12 -145 -42 -228 -105 -291 -348 -541 -681 -701 -100 -48 -184 -74
-313 -99 -97 -18 -142 -47 -177 -114 -34 -64 -115 -771 -143 -1246 -14 -234
-12 -584 5 -800 21 -278 23 -287 62 -331 42 -46 71 -56 193 -67 286 -26 865
69 1243 204 38 13 75 24 83 24 12 0 14 -33 14 -206 0 -113 5 -271 11 -351 9
-121 9 -147 -2 -154 -55 -34 -481 -152 -701 -193 -703 -134 -1308 -103 -1843
94 -170 62 -414 185 -425 214 -12 29 -47 218 -65 351 -26 191 -65 509 -62 511
1 1 49 -27 107 -62 116 -71 393 -214 453 -234 42 -13 105 -6 134 15 17 13 18
43 19 627 1 620 2 652 44 1033 19 182 62 443 100 620 26 118 35 195 26 229 -3
13 -28 50 -54 83 -76 91 -107 142 -138 223 -24 64 -28 90 -28 175 0 81 4 109
22 148 12 26 26 47 31 47 6 0 56 -19 110 -41 98 -41 101 -43 142 -105 82 -127
209 -220 354 -260 83 -22 258 -29 353 -14 209 34 412 133 560 274 68 65 159
207 203 316 21 55 39 103 39 108 0 4 7 17 15 29 l16 22 52 -20 c29 -12 68 -27
89 -34z m-5742 -320 c223 -37 435 -132 521 -233 35 -41 59 -98 59 -141 0 -31
-38 -133 -52 -143 -25 -15 -114 -8 -208 18 -178 49 -279 65 -455 71 -136 5
-191 2 -277 -12 l-106 -17 -30 22 c-17 12 -43 45 -58 74 -23 42 -29 67 -32
137 -5 104 17 168 67 193 80 42 404 60 571 31z m1159 -75 c38 -137 54 -265 48
-390 -9 -180 -43 -276 -153 -443 -115 -172 -317 -347 -401 -347 -53 0 -113 11
-113 21 0 4 21 18 47 31 56 27 168 130 231 211 90 118 188 349 211 502 5 33 6
93 4 133 -4 52 -1 78 9 95 8 12 24 47 36 77 19 50 27 78 46 164 4 15 9 27 11
25 2 -3 13 -38 24 -79z m-1274 -471 c196 -22 413 -80 525 -138 104 -54 111
-120 21 -204 -81 -76 -224 -104 -465 -93 -221 10 -369 51 -438 120 -41 41 -62
106 -55 166 13 106 92 160 237 160 47 0 126 -5 175 -11z m6902 -1375 c109 -37
199 -67 200 -68 1 -1 -18 -31 -43 -66 -25 -36 -73 -110 -106 -165 -80 -131
-377 -717 -417 -823 -28 -74 -30 -87 -20 -120 9 -32 8 -45 -7 -77 l-17 -40 -8
40 c-24 121 5 503 56 735 8 36 26 119 40 185 15 66 39 174 55 240 15 66 33
144 40 173 7 28 16 52 20 52 5 0 98 -30 207 -66z m-158 -1541 c64 -65 141
-133 172 -151 56 -33 202 -75 305 -88 30 -3 54 -9 54 -12 0 -3 -16 -25 -36
-49 -20 -25 -54 -78 -75 -119 -34 -66 -39 -84 -39 -144 0 -65 2 -71 40 -119
43 -54 134 -131 155 -131 7 0 32 18 56 39 l44 39 -24 71 c-13 38 -29 72 -35
74 -6 2 -28 -4 -49 -15 -48 -24 -64 -19 -83 28 -14 34 -14 38 10 78 43 74 148
156 199 156 13 0 62 -96 94 -185 24 -66 22 -161 -6 -230 -31 -76 -97 -172
-125 -182 -29 -10 -374 -5 -529 7 -172 14 -222 32 -254 89 -32 58 -87 222
-113 338 -44 200 -41 342 11 453 28 60 96 170 105 170 4 0 59 -53 123 -117z"/>
<path d="M7107 8438 c-31 -24 -57 -46 -57 -51 0 -4 25 -18 55 -31 80 -36 129
-73 230 -172 l90 -89 3 31 c4 44 -33 136 -78 193 -34 43 -168 161 -182 161 -3
0 -30 -19 -61 -42z"/>
<path d="M5883 8425 c-80 -44 -162 -123 -149 -143 3 -5 44 11 90 34 47 24 113
48 146 55 33 6 60 15 60 19 0 4 -15 23 -32 43 l-33 37 -82 -45z"/>
<path d="M5808 7986 c-61 -52 -87 -185 -56 -288 12 -42 58 -88 87 -88 56 0
112 92 119 195 10 160 -67 253 -150 181z"/>
<path d="M6466 7958 c-14 -13 -52 -71 -86 -131 -75 -133 -109 -181 -232 -326
-114 -133 -116 -141 -61 -240 62 -113 106 -170 138 -181 42 -14 128 8 133 33
2 11 -21 55 -52 101 -31 45 -59 98 -62 117 -7 41 1 59 113 252 82 140 127 241
148 329 17 74 7 87 -39 46z"/>
<path d="M6960 7910 c-77 -25 -130 -49 -130 -58 0 -21 51 -52 109 -67 94 -24
167 -61 309 -158 46 -31 77 -46 83 -40 17 17 22 109 9 162 -34 145 -207 218
-380 161z"/>
<path d="M7942 7598 c-24 -24 -11 -45 59 -98 39 -30 98 -87 131 -127 63 -77
96 -95 83 -45 -14 58 -58 139 -98 181 -85 88 -145 119 -175 89z"/>
<path d="M7938 7389 c-26 -15 -22 -46 11 -88 15 -20 40 -55 55 -79 32 -52 50
-60 76 -37 40 36 21 112 -42 172 -37 36 -75 48 -100 32z"/>
<path d="M6900 7108 c0 -7 7 -38 15 -68 21 -77 19 -88 -17 -110 -48 -29 -324
-110 -470 -137 -191 -35 -494 -4 -670 70 -32 13 -38 21 -38 45 0 48 -12 92
-24 91 -22 -2 -142 -146 -155 -186 -13 -39 -12 -43 24 -114 50 -101 108 -189
120 -186 5 2 13 23 18 46 5 23 14 44 22 47 7 3 51 -18 97 -47 105 -66 249
-135 336 -160 228 -67 455 -9 818 207 136 81 162 75 166 -36 3 -69 5 -75 25
-78 28 -4 31 3 73 173 43 171 41 178 -83 277 -119 95 -234 178 -247 178 -5 0
-10 -6 -10 -12z m137 -292 c18 -12 33 -26 33 -32 0 -19 -54 -62 -110 -87 -372
-169 -456 -192 -658 -185 -112 4 -139 9 -234 41 -116 39 -309 119 -345 143
-24 15 -32 67 -13 79 5 3 78 -8 163 -24 215 -43 333 -55 467 -48 132 6 227 26
460 95 91 28 174 47 185 44 11 -2 34 -14 52 -26z"/>
<path d="M6230 6308 c-69 -5 -129 -13 -134 -18 -14 -14 1 -37 45 -70 55 -39
108 -53 190 -48 88 5 119 25 119 77 0 67 -26 74 -220 59z"/>
<path d="M12370 156 c-6 -8 -24 -16 -38 -18 -23 -2 -28 -9 -30 -37 -4 -40 10
-60 31 -42 10 8 78 12 213 14 l199 2 0 29 c0 26 -3 29 -44 32 -24 2 -50 -1
-57 -7 -7 -6 -19 -7 -26 -3 -7 4 -28 9 -48 11 -19 2 -41 11 -47 20 -12 15 -14
15 -30 1 -31 -27 -58 -30 -78 -8 -22 24 -29 25 -45 6z"/>
</g>
</svg>
